<?xml version="1.0" encoding="utf-8"?>
<!-- Generator: Adobe Illustrator 15.0.0, SVG Export Plug-In . SVG Version: 6.00 Build 0)  -->
<!DOCTYPE svg PUBLIC "-//W3C//DTD SVG 1.1//EN" "http://www.w3.org/Graphics/SVG/1.1/DTD/svg11.dtd">
<svg version="1.1" id="Layer_1" xmlns="http://www.w3.org/2000/svg" xmlns:xlink="http://www.w3.org/1999/xlink" x="0px" y="0px"
	 width="739.645px" height="65.089px" viewBox="0 0 739.645 65.089" enable-background="new 0 0 739.645 65.089"
	 xml:space="preserve">
<rect x="95.858" y="-168.047" fill="none" width="477.514" height="205.917"/>
<g>
	<path d="M1.406,3.997h44.227v13.746H31.18l0.531,42.926H16.066l-0.169-42.926H1.406V3.997z"/>
	<path d="M73.124,3.54c8.68,0,15.158,2.85,21.356,8.471c5.873,5.621,8.844,12.462,8.844,20.354c0,7.914-2.971,14.746-8.848,20.324
		c-6.177,5.555-12.651,8.367-21.354,8.367c-8.725-0.023-15.195-2.832-21.352-8.368c-5.853-5.604-8.809-12.431-8.809-20.323
		c0-7.869,2.957-14.706,8.805-20.353C57.969,6.388,64.443,3.54,73.124,3.54z M73.124,17.497c-4.762,0-7.632,1.424-10.92,4.335
		c-3.35,2.964-4.979,6.401-4.979,10.464c0,4.109,1.631,7.541,4.973,10.459c3.314,2.893,6.189,4.309,10.927,4.309
		c4.657,0,7.526-1.414,10.896-4.314c3.362-2.895,5.004-6.322,5.004-10.453c0-4.084-1.64-7.517-5.01-10.459
		C80.67,18.919,77.805,17.497,73.124,17.497z"/>
	<path d="M111.09,3.856l27.392,36.02l27.355-36.02h2.843v56.813h-13.852V39.75l-16.345,20.87l-16.385-20.877v20.926h-13.852V3.856
		H111.09z"/>
	<path d="M175.711,3.856h39.094v13.816h-24.58v7.734h18.884v13.816h-18.884v7.734h24.58v13.781h-39.094V3.856z"/>
	<path d="M219.721,3.997h13.816v21.717l15.041-21.717h15.998l-18.043,28.716l20.97,27.956h-16.855l-17.111-21.071v21.071h-13.816
		V3.997z"/>
	<path d="M321.573,3.54c8.68,0,15.158,2.85,21.356,8.471c5.873,5.621,8.844,12.462,8.844,20.354c0,7.914-2.971,14.746-8.848,20.324
		c-6.177,5.555-12.651,8.367-21.354,8.367c-8.725-0.023-15.195-2.832-21.352-8.368c-5.853-5.604-8.809-12.431-8.809-20.323
		c0-7.869,2.957-14.706,8.805-20.353C306.418,6.388,312.892,3.54,321.573,3.54z M321.573,17.497c-4.762,0-7.632,1.424-10.92,4.335
		c-3.35,2.964-4.979,6.401-4.979,10.464c0,4.109,1.631,7.541,4.973,10.459c3.314,2.893,6.189,4.309,10.927,4.309
		c4.657,0,7.526-1.414,10.896-4.314c3.362-2.895,5.004-6.322,5.004-10.453c0-4.084-1.64-7.517-5.01-10.459
		C329.12,18.919,326.254,17.497,321.573,17.497z"/>
	<path d="M356.695,3.997h13.852v42.891h25.243v13.781h-39.095V3.997z"/>
	<path d="M412.72,42.732c0,2.092,2.502,4.14,5.215,4.493l0.01,0.002h0.732c2.898,0,5.996-2.153,5.996-4.337
		c0-3.753-6.133-4.331-11.154-5.817c-7.871-2.328-14.482-8.023-14.482-15.986c0-9.668,8.336-17.484,19.699-17.484
		c10.361,0,18.232,6.916,19.482,15.899l0.154,1.103l-14.559,2.928c0-3.482-1.424-6.005-5.002-6.005
		c-2.736,0-5.063,1.953-5.063,4.337c0,3.739,5.791,4.945,10.578,6.16c8.084,2.037,14.951,7.525,14.951,15.678
		c0,9.737-9.219,17.5-20.506,17.5c-10.367,0-18.973-6.814-20.359-15.883l-0.17-1.113l14.477-2.952V42.732z"/>
	<path d="M442.806,3.997h45.516l-23.02,43.464h22.293v13.208h-45.514l23.018-42.926h-22.293V3.997z"/>
	<path d="M521.296,3.54c8.68,0,15.158,2.85,21.357,8.471c5.873,5.621,8.844,12.462,8.844,20.354c0,7.914-2.971,14.746-8.848,20.324
		c-6.178,5.555-12.652,8.367-21.355,8.367c-8.725-0.023-15.195-2.832-21.352-8.368c-5.854-5.604-8.809-12.431-8.809-20.323
		c0-7.869,2.957-14.706,8.805-20.353C506.142,6.388,512.614,3.54,521.296,3.54z M521.296,17.497c-4.762,0-7.633,1.424-10.92,4.335
		c-3.35,2.964-4.979,6.401-4.979,10.464c0,4.109,1.629,7.541,4.973,10.459c3.314,2.893,6.189,4.309,10.926,4.309
		c4.658,0,7.527-1.414,10.896-4.314c3.361-2.895,5.004-6.322,5.004-10.453c0-4.084-1.641-7.517-5.01-10.459
		C528.843,18.919,525.978,17.497,521.296,17.497z"/>
	<path d="M550.241,3.997h14.916l10.227,24.677L585.88,3.435h1.316l10.457,25.229l10.189-24.667h14.951l-23.715,56.672h-2.834
		l-9.842-24.633l-9.615,24.633h-2.83L550.241,3.997z"/>
	<path d="M637.614,42.732c0,2.092,2.502,4.14,5.215,4.493l0.01,0.002h0.732c2.898,0,5.996-2.153,5.996-4.337
		c0-3.753-6.133-4.331-11.154-5.817c-7.871-2.328-14.482-8.023-14.482-15.986c0-9.668,8.336-17.484,19.699-17.484
		c10.361,0,18.232,6.916,19.482,15.899l0.154,1.103l-14.559,2.928c0-3.482-1.424-6.005-5.002-6.005
		c-2.736,0-5.063,1.953-5.063,4.337c0,3.739,5.791,4.945,10.578,6.16c8.084,2.037,14.951,7.525,14.951,15.678
		c0,9.737-9.219,17.5-20.506,17.5c-10.367,0-18.973-6.814-20.359-15.883l-0.17-1.113l14.477-2.952V42.732z"/>
	<path d="M669.089,3.997h13.816v21.717l15.041-21.717h15.998l-18.043,28.716l20.971,27.956h-16.855l-17.111-21.071v21.071h-13.816
		V3.997z"/>
	<path d="M721.794,60.669V3.997h13.852v56.672H721.794z"/>
</g>
</svg>
