<svg xmlns="http://www.w3.org/2000/svg" viewBox="0 0 150 150" id="el_FtJuEgkZv"><style>@-webkit-keyframes kf_el_SJtKrj-nfQ_an_01kowl6Z9{0%{-webkit-transform: translate(-36.98800277709961px, -37.987998962402344px) translate(36.98800277709961px, 37.987998962402344px) translate(0px, 0px);transform: translate(-36.98800277709961px, -37.987998962402344px) translate(36.98800277709961px, 37.987998962402344px) translate(0px, 0px);}100%{-webkit-transform: translate(-36.98800277709961px, -37.987998962402344px) translate(36.98800277709961px, 37.987998962402344px) translate(11px, 11px);transform: translate(-36.98800277709961px, -37.987998962402344px) translate(36.98800277709961px, 37.987998962402344px) translate(11px, 11px);}}@keyframes kf_el_SJtKrj-nfQ_an_01kowl6Z9{0%{-webkit-transform: translate(-36.98800277709961px, -37.987998962402344px) translate(36.98800277709961px, 37.987998962402344px) translate(0px, 0px);transform: translate(-36.98800277709961px, -37.987998962402344px) translate(36.98800277709961px, 37.987998962402344px) translate(0px, 0px);}100%{-webkit-transform: translate(-36.98800277709961px, -37.987998962402344px) translate(36.98800277709961px, 37.987998962402344px) translate(11px, 11px);transform: translate(-36.98800277709961px, -37.987998962402344px) translate(36.98800277709961px, 37.987998962402344px) translate(11px, 11px);}}#el_FtJuEgkZv *{-webkit-animation-duration: 0.5s;animation-duration: 0.5s;-webkit-animation-iteration-count: infinite;animation-iteration-count: infinite;-webkit-animation-timing-function: cubic-bezier(0, 0, 1, 1);animation-timing-function: cubic-bezier(0, 0, 1, 1);}#el_Bw3USPqZpD{fill-rule: evenodd;}#el_SJtKrj-nfQ{fill-rule: evenodd;fill: #fff;}#el_SJtKrj-nfQ_an_01kowl6Z9{-webkit-animation-fill-mode: backwards;animation-fill-mode: backwards;-webkit-transform: translate(-36.98800277709961px, -37.987998962402344px) translate(36.98800277709961px, 37.987998962402344px) translate(0px, 0px);transform: translate(-36.98800277709961px, -37.987998962402344px) translate(36.98800277709961px, 37.987998962402344px) translate(0px, 0px);-webkit-animation-name: kf_el_SJtKrj-nfQ_an_01kowl6Z9;animation-name: kf_el_SJtKrj-nfQ_an_01kowl6Z9;-webkit-animation-timing-function: cubic-bezier(0, 0, 1, 1);animation-timing-function: cubic-bezier(0, 0, 1, 1);}</style>
  <metadata><!--?xpacket begin="﻿" id="W5M0MpCehiHzreSzNTczkc9d"?-->
<x:xmpmeta xmlns:x="adobe:ns:meta/" x:xmptk="Adobe XMP Core 5.6-c138 79.159824, 2016/09/14-01:09:01        ">
   <rdf:rdf xmlns:rdf="http://www.w3.org/1999/02/22-rdf-syntax-ns#">
      <rdf:description rdf:about=""/>
   </rdf:rdf>
</x:xmpmeta>
                                                                                                    
                                                                                                    
                                                                                                    
                                                                                                    
                                                                                                    
                                                                                                    
                                                                                                    
                                                                                                    
                                                                                                    
                                                                                                    
                                                                                                    
                                                                                                    
                                                                                                    
                                                                                                    
                                                                                                    
                                                                                                    
                                                                                                    
                                                                                                    
                                                                                                    
                                                                                                    
                           
<!--?xpacket end="w"?--></metadata>
<defs>
    
  </defs>
  <path id="el_Bw3USPqZpD" d="M1.825,55.106H22.542l0.241,61.365H45.148L44.389,55.106H65.05V35.455H1.825V55.106Zm71.993-8.193c-8.361,8.072-12.588,17.845-12.588,29.1a38.911,38.911,0,0,0,12.593,29.053c8.8,7.915,18.052,11.929,30.525,11.962,12.441,0,21.7-4.019,30.527-11.96a38.735,38.735,0,0,0,12.649-29.055c0-11.282-4.248-21.062-12.644-29.1C126.019,38.876,116.759,34.8,104.35,34.8S82.685,38.873,73.818,46.914Zm46.1,14.046c4.818,4.205,7.162,9.113,7.162,14.951,0,5.905-2.346,10.806-7.153,14.943s-8.918,6.167-15.577,6.167c-6.772,0-10.882-2.023-15.62-6.159-4.778-4.171-7.109-9.076-7.109-14.951,0-5.809,2.329-10.721,7.118-14.959,4.7-4.161,8.8-6.2,15.611-6.2C111.043,54.754,115.138,56.788,119.918,60.96Z"/>
  <g id="el_SJtKrj-nfQ_an_01kowl6Z9" data-animator-group="true" data-animator-type="0"><path d="M59.412-37.988l1.4,1.4-96.4,96.4-1.4-1.4ZM65-32.4L66.4-31-30,65.4-31.4,64Zm5.588,5.588,1.4,1.4-96.4,96.4-1.4-1.4Zm5.588,5.588,1.4,1.4-96.4,96.4-1.4-1.4Zm5.588,5.588,1.4,1.4-96.4,96.4-1.4-1.4Zm5.588,5.588,1.4,1.4-96.4,96.4-1.4-1.4Zm5.588,5.588,1.4,1.4-96.4,96.4-1.4-1.4ZM98.53,1.131l1.4,1.4-96.4,96.4-1.4-1.4Zm5.589,5.588,1.4,1.4-96.4,96.4-1.4-1.4Zm5.588,5.588,1.4,1.4L14.7,110.1l-1.4-1.4ZM115.3,17.9l1.4,1.4-96.4,96.4-1.4-1.4Zm5.589,5.588,1.4,1.4-96.4,96.4-1.4-1.4ZM31.47,126.869l-1.4-1.4,96.4-96.4,1.4,1.4ZM132.06,34.661l1.4,1.4-96.4,96.4-1.4-1.4ZM42.647,138.046l-1.4-1.4,96.4-96.4,1.4,1.4Zm100.59-92.208,1.4,1.4-96.4,96.4-1.4-1.4ZM53.823,149.223l-1.4-1.4,96.4-96.4,1.4,1.4ZM154.414,57.015l1.4,1.4-96.4,96.4-1.4-1.4ZM65,160.4L63.6,159,160,62.6l1.4,1.4ZM165.591,68.191l1.4,1.4-96.4,96.4-1.4-1.4Z" id="el_SJtKrj-nfQ"/></g>
</svg>