<svg xmlns="http://www.w3.org/2000/svg" viewBox="0 0 178 178" id="el_HfKDHMWIX"><style>@-webkit-keyframes kf_el_DeHmPdSJsi_an_d7kOan9vN{0%{opacity: 1;}50%{opacity: 0;}100%{opacity: 1;}}@keyframes kf_el_DeHmPdSJsi_an_d7kOan9vN{0%{opacity: 1;}50%{opacity: 0;}100%{opacity: 1;}}#el_HfKDHMWIX *{-webkit-animation-duration: 1s;animation-duration: 1s;-webkit-animation-iteration-count: infinite;animation-iteration-count: infinite;-webkit-animation-timing-function: cubic-bezier(0, 0, 1, 1);animation-timing-function: cubic-bezier(0, 0, 1, 1);}#el_CPAaNwe3-S{fill-rule: evenodd;}#el_DeHmPdSJsi{fill-rule: evenodd;-webkit-animation-fill-mode: backwards;animation-fill-mode: backwards;opacity: 1;-webkit-animation-name: kf_el_DeHmPdSJsi_an_d7kOan9vN;animation-name: kf_el_DeHmPdSJsi_an_d7kOan9vN;-webkit-animation-timing-function: cubic-bezier(0.42, 0, 0.58, 1);animation-timing-function: cubic-bezier(0.42, 0, 0.58, 1);}</style>
  <metadata><!--?xpacket begin="﻿" id="W5M0MpCehiHzreSzNTczkc9d"?-->
<x:xmpmeta xmlns:x="adobe:ns:meta/" x:xmptk="Adobe XMP Core 5.6-c138 79.159824, 2016/09/14-01:09:01">
   <rdf:rdf xmlns:rdf="http://www.w3.org/1999/02/22-rdf-syntax-ns#">
      <rdf:description rdf:about=""/>
   </rdf:rdf>
</x:xmpmeta>
<!--?xpacket end="w"?--></metadata>
<defs>
  </defs>
  <path id="el_CPAaNwe3-S" d="M11.965,67.637H30.629l0.217,55.285H50.995L50.311,67.637H68.925v-17.7H11.965v17.7Zm64.859-7.381a35.915,35.915,0,0,0,0,52.386c7.93,7.13,16.263,10.747,27.5,10.777,11.208,0,19.546-3.621,27.5-10.775a35.812,35.812,0,0,0,.005-52.391c-7.984-7.239-16.326-10.909-27.505-10.909S84.812,53.013,76.824,60.257Zm41.532,12.654c4.34,3.789,6.452,8.21,6.452,13.47,0,5.32-2.114,9.735-6.444,13.463s-8.035,5.556-14.033,5.556c-6.1,0-9.8-1.823-14.073-5.549-4.3-3.757-6.4-8.177-6.4-13.47,0-5.233,2.1-9.659,6.413-13.477C94.5,69.155,98.2,67.32,104.331,67.32,110.36,67.32,114.05,69.152,118.356,72.911Z"/>
  <path id="el_DeHmPdSJsi" data-name="." d="M153.457,127.909a12.028,12.028,0,1,0-12.053-12A12.118,12.118,0,0,0,153.457,127.909Z"/>
</svg>